<?xml version="1.0" encoding="UTF-8"?>
<svg id="Camada_1" xmlns="http://www.w3.org/2000/svg" version="1.1" viewBox="0 0 1080 1080">
  <!-- Generator: Adobe Illustrator 29.5.0, SVG Export Plug-In . SVG Version: 2.1.0 Build 137)  -->
  <defs>
    <style>
      .st0 {
        fill: #fff;
      }
    </style>
  </defs>
  <g>
    <path class="st0" d="M328.24,616.92l74.69-61.18c32.65-26.65,45.42-41.29,45.42-63.06s-14.64-34.16-35.28-34.16c-16.52,0-28.15,7.13-42.79,22.9-3.75,4.13-10.51,8.26-19.52,8.26-14.64,0-26.27-11.64-26.27-26.27,0-6.38,2.63-13.14,6.76-18.02,21.02-24.4,45.79-38.66,85.58-38.66,54.43,0,90.46,31.9,90.46,81.07v.75c0,43.92-22.52,65.69-69.06,101.72l-42.79,33.03h91.58c13.89,0,25.15,11.26,25.15,25.15s-11.26,24.77-25.15,24.77h-142.63c-18.02,0-31.15-10.13-31.15-27.4,0-11.26,5.25-21.02,15.01-28.9Z"/>
    <path class="st0" d="M674.68,616.55h-108.1c-15.39,0-28.15-11.26-28.15-26.65,0-12.01,4.88-21.39,13.51-31.53l114.1-132.5c10.89-12.76,19.14-19.52,36.03-19.52,15.39,0,27.78,12.01,27.78,27.4v135.88h13.89c13.14,0,23.65,10.51,23.65,23.65s-10.51,23.27-23.65,23.27h-13.89v31.53c0,15.39-12.39,27.4-27.78,27.4s-27.4-12.01-27.4-27.4v-31.53ZM674.68,569.63v-81.83l-69.81,81.83h69.81Z"/>
  </g>
  <g>
    <path class="st0" d="M979.72,801.23c-76.26,118.01-199.78,196.49-338.9,215.31-21.61,2.91-43.27,4.38-64.89,4.38-30.94,0-61.75-3-92.13-8.99-201.49-39.61-355.37-203.05-382.91-406.7-14.09-104.22,5.6-207.66,56.97-299.1,35.64-63.41,85.98-118.76,145.63-160.07,62.56-43.33,132.77-70.5,208.7-80.78,141.84-19.18,283.5,25.81,388.01,121.24l.53-2c3.87-14.62,18.87-23.36,33.5-19.49,14.62,3.87,23.36,18.85,19.49,33.5l-12.57,47.59-.19.74c-.05.22-.12.43-.19.65-.09.33-.19.63-.29.96-.02.07-.05.14-.07.21-.14.38-.27.74-.41,1.11-.22.58-.48,1.16-.74,1.73-.02.03-.02.05-.03.07-.27.57-.57,1.11-.86,1.66,0,.02-.02.03-.03.07-.31.53-.62,1.04-.94,1.54-1.04,1.58-2.23,3.05-3.54,4.37-.43.43-.86.84-1.32,1.23-.03.03-.07.07-.1.09-.33.29-.67.58-1.01.84-.48.38-.96.74-1.47,1.08-.24.17-.48.33-.72.48-.31.19-.62.39-.94.57-.29.17-.58.34-.87.5-.77.43-1.56.8-2.36,1.13-.24.1-.48.21-.74.29-.12.05-.24.1-.38.14-.31.14-.62.24-.92.34-.6.21-1.23.38-1.87.53-.22.07-.46.12-.7.17-.27.07-.55.12-.82.17-.22.05-.43.09-.65.12-.07.02-.14.02-.21.03-.43.07-.86.14-1.3.17-.09.02-.15.03-.24.03l-55.84,5.67c-15.05,1.52-28.5-9.44-30.02-24.49-1.46-14.35,8.43-27.25,22.38-29.75-91.57-78.76-212.81-115.39-334.22-98.98-133.44,18.05-247.85,95.83-313.88,213.39-45.48,80.97-62.93,172.58-50.45,264.92,24.4,180.39,160.72,325.17,339.19,360.25,45.69,9.01,92.47,10.38,139.09,4.08,123.25-16.68,232.67-86.19,300.23-190.74,8.2-12.72,25.17-16.37,37.88-8.15,12.71,8.22,16.35,25.17,8.13,37.88Z"/>
    <path class="st0" d="M933.86,259.23c1.32-1.32,2.5-2.79,3.54-4.37-1.03,1.59-2.23,3.05-3.54,4.37Z"/>
  </g>
</svg>