<?xml version="1.0" encoding="UTF-8"?>
<svg id="Camada_1" xmlns="http://www.w3.org/2000/svg" version="1.1" viewBox="0 0 1080 1080">
  <!-- Generator: Adobe Illustrator 29.5.0, SVG Export Plug-In . SVG Version: 2.1.0 Build 137)  -->
  <defs>
    <style>
      .st0 {
        fill: #fff;
      }
    </style>
  </defs>
  <path class="st0" d="M386.93,264.22c13.38-2.58,26.75-2.59,38.82-.29,1.83,1.99,2.5,2.52,2.89,3.21.39.68.69,1.52.69,2.29.28,152.73.54,305.46.74,458.19,0,4-.62,7.99-1,12.53-14.12,7.75-28.25,2.39-41.69,3.45-1.77-4.43-3.41-6.64-3.41-8.84-.09-154.37-.06-308.74.09-463.11,0-2.21,1.66-4.41,2.88-7.42Z"/>
  <path class="st0" d="M777.08,742.33c-12.72,2.85-25.47,2.3-39.75.27-.87-5.44-2.44-10.79-2.47-16.16-.22-31.72-.08-63.44-.08-95.16,0-113.06-.02-226.11.04-339.17,0-8.78.55-17.55.87-27.15,14.88-4.18,28.23-1.88,41.9-1.9,1.25,4.84,2.72,7.89,2.72,10.95.03,153.71-.06,307.43-.27,461.14,0,2.19-1.76,4.38-2.96,7.18Z"/>
  <path class="st0" d="M284.46,742.93h-40.78c-6.75-7.17-4.43-14.87-4.46-21.88-.22-47.16-.12-94.32-.12-141.49,0-95.95-.05-191.9.09-287.85.01-8.75-1.79-17.81,2.88-27.46,12.26-2.96,25.04-1.82,39.18-.68,1.05,4.41,2.54,8.84,3.05,13.38.54,4.82.15,9.74.15,14.62,0,141.49,0,282.97.01,424.46,0,8.03,0,16.05,0,26.9Z"/>
  <path class="st0" d="M635.5,741.64c-15.89,3.59-28.55,2.76-42.69,1.3-1.02-5.04-2.25-9.53-2.77-14.1-.45-4.01-.12-8.12-.12-12.18,0-141.44,0-282.87.05-424.31,0-8.8.46-17.61.72-26.7,14.95-4.96,28.26-3.39,42.14-1.58,4.06,9.41,2.57,18.43,2.58,27.14.12,97.54.08,195.08.08,292.62,0,43.89.01,87.79.02,131.68,0,8.06,0,16.11,0,26.13Z"/>
  <path class="st0" d="M202.76,818.29c-8.97,3.71-18.19,3.36-26.22.87-1.8-1.88-2.49-2.37-2.85-3.04-.37-.69-.58-1.56-.58-2.35-.22-177.05-.41-354.11-.58-531.16,0-4.05.18-8.11.56-12.14.14-1.51,1.11-2.94,2.34-6.01,8.4-2.83,17.53-2.77,27.91.55.62,4.2,1.55,8.06,1.7,11.94,2.79,76.93.99,519.58-2.27,541.35Z"/>
  <path class="st0" d="M525.26,265.19c9.9-4.16,18.51-2.52,27.06-1.39,1.21,3.14,2.82,5.37,2.82,7.61.27,178.17.43,356.35.53,534.52,0,3.9-.67,7.79-1.04,11.85-10.45,4.86-19.64,3.08-28.58,1.6-3.43-22.3-5.24-464.12-2.41-542.98.14-3.89,1.1-7.74,1.61-11.21Z"/>
  <path class="st0" d="M903.91,818.58c-2.67.66-5.71,1.96-8.78,2.04-5.56.14-11.14-.45-16.55-.72-5.68-7.18-3.62-14.77-3.63-21.74-.17-66.65-.1-133.3-.1-199.94,0-101.6,0-203.19,0-304.79,0-8.88,0-17.76,0-25.64,9.17-8.24,18.26-3.84,27.98-5.14,1.28,5.25,2.87,9.67,3.31,14.19.55,5.64.16,11.37.16,17.06,0,165.81.04,331.61-.09,497.42,0,8.79,1.83,17.84-2.3,27.27Z"/>
  <path class="st0" d="M821.5,264.16c5.83-.36,11.25-.7,16.73-1.04,1.19,3.04,2.64,5.21,2.8,7.47.44,6.47.47,12.97.47,19.46.02,142.09.04,284.18,0,426.27,0,8.01-.48,16.02-.73,23.91-6.77,4.89-12.68,4.39-19.14,1.02-.74-2.02-2.27-4.26-2.28-6.5-.15-153.45-.19-306.9-.12-460.36,0-3.08,1.34-6.17,2.29-10.23Z"/>
  <path class="st0" d="M342.32,742.48h-17.13c-.79-4.2-1.88-7.28-1.88-10.35-.08-155.13-.07-310.25-.07-466.72,6.51-1.06,11.72-1.92,18.04-2.95,1.39,5.46,3.18,9.93,3.54,14.51.57,7.27.21,14.62.21,21.93,0,138.14.04,276.29-.04,414.43,0,9.54,1.47,19.36-2.67,29.15Z"/>
  <path class="st0" d="M469.41,263.97h16.89c1.54,1.63,2.22,2.14,2.62,2.83.4.68.71,1.52.72,2.29.33,152.05.65,304.09.9,456.14,0,4.83-.64,9.67-.96,14.21-5.77,5.8-11.7,5.17-17.19,2.84-1.25-1.32-1.94-1.83-2.33-2.51-.4-.68-.72-1.53-.73-2.31-.32-151.23-.63-302.46-.87-453.69,0-5.65.53-11.29.96-19.81Z"/>
  <path class="st0" d="M693.3,263.16c3.49,25.15,3.18,459.19-.22,479.41-4.86.26-10.11.53-14.59.77-6.54-7.23-4.41-14.89-4.43-21.95-.15-58.54-.07-117.08-.07-175.62,0-84.56-.02-169.12.03-253.68,0-8.79.39-17.57.64-27.96,6.87-.35,12.11-.62,18.65-.96Z"/>
  <path class="st0" d="M867.23,866.73h83.63c1.29-5.58,3.12-10.03,3.21-14.51.36-19.49.12-39,.31-58.49.06-6.31.78-12.61,1.22-19.22,12.85-5.34,24.72-2.16,37.66-2.63,5.49,23.06,2.28,44.87,2.7,66.4.42,21.77.81,43.6-.45,66.26-14.69,4.88-28.5,2.22-41.97,2.66-14.61.47-29.25.19-43.87.08-13.65-.09-27.3-.38-41.64-.59-3.62-13.38-2.72-25.08-.81-39.96Z"/>
  <path class="st0" d="M866.2,210.04v-34.05c4.57-1.18,9.03-3.29,13.51-3.33,34.18-.27,68.37-.16,102.55-.06,3.18,0,6.36.77,10.4,1.3,1.1,2.97,3.07,5.85,3.09,8.74.19,39.06.13,78.12.04,117.18,0,1.52-.93,3.04-1.76,5.61-11.81,5.75-24.24,3.87-38.37,1.04-3.47-30.31.72-60.34-2.71-91.24-5.87-.76-11.27-2-16.7-2.08-18.72-.26-37.44.08-56.16-.25-4.55-.08-9.07-1.82-13.89-2.86Z"/>
  <path class="st0" d="M211.71,906.85c-38.63.95-75.07.3-111.49.36-4.66,0-9.32-.83-13.54-1.24-3.51-19.4-4.29-100.29-1.43-130.99,11.92-6.07,24.28-3.58,37.31-1.1,4.4,30.38-1.14,60.48,3.41,91.05,28.27,4.01,55.85-.07,84.68,2.78.78,6.67,1.88,12.8,2.11,18.97.21,5.61-.53,11.26-1.04,20.18Z"/>
  <path class="st0" d="M83.74,175.2c25.33-3.82,107.12-3.55,127.67.18.44,4.18,1.35,8.82,1.33,13.45-.03,7.12-.68,14.24-1.11,22.1-14.58,3.79-28.33,1.65-41.88,2.02-13.73.37-27.47.08-42.19.08-1.26,5.64-3.05,10.12-3.14,14.63-.35,18.63-.11,37.28-.24,55.92-.05,7.21-.49,14.42-.76,21.74-12.64,5.65-24.41,3.38-37.78,1.85-3.71-14.7-1.43-29.21-1.81-43.46-.39-14.58-.09-29.17-.09-43.76,0-14.48,0-28.97,0-44.75Z"/>
</svg>