<?xml version="1.0" encoding="UTF-8"?>
<svg id="Camada_1" xmlns="http://www.w3.org/2000/svg" version="1.1" viewBox="0 0 1080 1080">
  <!-- Generator: Adobe Illustrator 29.5.0, SVG Export Plug-In . SVG Version: 2.1.0 Build 137)  -->
  <defs>
    <style>
      .st0 {
        fill: #fff;
      }
    </style>
  </defs>
  <path class="st0" d="M917.8,222.44l-753.78-2.47c-49.19,0-89.33,39.97-89.51,89.16l-1.51,458.65c-.09,23.88,9.17,46.38,26,63.33,16.83,17,39.28,26.39,63.16,26.43l753.56,2.47h.26c49.19,0,89.33-39.97,89.46-89.16l1.56-458.65c.13-49.36-39.89-89.64-89.2-89.77ZM957.56,770.69c-.09,22.84-18.73,41.4-41.7,41.4l-728.99-2.38v.43h-16.18v-.43l-8.35-.09c-11.12,0-21.54-4.37-29.37-12.24-7.79-7.87-12.07-18.34-12.03-29.42l1.47-458.7c.09-22.84,18.73-41.4,41.66-41.4l753.56,2.47c11.07.04,21.5,4.41,29.33,12.29,7.83,7.92,12.16,18.34,12.11,29.42l-1.51,458.65Z"/>
  <path class="st0" d="M873.28,292.66h-174.69c-8.39,0-15.27,6.84-15.27,15.18v232.14c0,8.39,6.88,15.23,15.27,15.23h174.69c8.39,0,15.23-6.84,15.23-15.23v-232.14c0-8.35-6.84-15.18-15.23-15.18ZM858.06,323.11v201.64h-144.23v-201.64h144.23Z"/>
  <path class="st0" d="M517.29,597.21c0,13.19-10.77,23.97-24.01,23.97H222.51c-13.19,0-23.92-10.77-23.92-23.97s10.73-23.97,23.92-23.97h270.77c13.24,0,24.01,10.73,24.01,23.97Z"/>
  <path class="st0" d="M643.91,697.66c0,13.19-10.73,23.97-23.97,23.97H222.51c-13.19,0-23.92-10.77-23.92-23.97s10.73-23.97,23.92-23.97h397.44c13.24,0,23.97,10.73,23.97,23.97Z"/>
</svg>