<?xml version="1.0" encoding="UTF-8"?>
<svg id="Camada_1" xmlns="http://www.w3.org/2000/svg" version="1.1" viewBox="0 0 1080 1080">
  <!-- Generator: Adobe Illustrator 29.5.0, SVG Export Plug-In . SVG Version: 2.1.0 Build 137)  -->
  <defs>
    <style>
      .st0 {
        fill: #fff;
      }
    </style>
  </defs>
  <path class="st0" d="M583.44,177.55c0,7-5.69,12.7-12.7,12.7h-61.49c-7,0-12.7-5.69-12.7-12.7s5.69-12.7,12.7-12.7h61.49c7,0,12.7,5.69,12.7,12.7Z"/>
  <path class="st0" d="M492.67,177.55c0,6.01-4.92,10.89-10.93,10.89s-10.89-4.88-10.89-10.89,4.88-10.89,10.89-10.89,10.93,4.88,10.93,10.89Z"/>
  <path class="st0" d="M763.12,94.19h-446.24c-44.64,0-80.96,36.32-80.96,80.96v729.7c0,44.64,36.32,80.96,80.96,80.96h446.24c44.64,0,80.96-36.32,80.96-80.96V175.15c0-44.64-36.32-80.96-80.96-80.96ZM539.98,920.26c-15.27,0-27.7-12.42-27.7-27.7s12.42-27.7,27.7-27.7,27.74,12.42,27.74,27.7-12.42,27.7-27.74,27.7ZM344.03,819.1V225.66h391.93v593.44h-391.93ZM799.58,904.85c0,20.11-16.36,36.46-36.46,36.46h-198.88c17.89-8.95,30.23-27.42,30.23-48.75,0-19.79-10.62-37.18-26.48-46.72h181.35c7.36,0,13.37-6.01,13.37-13.37V212.29c0-7.36-6.01-13.37-13.37-13.37h-418.68c-7.36,0-13.37,6.01-13.37,13.37v620.18c0,7.36,6.01,13.37,13.37,13.37h181.31c-15.81,9.53-26.43,26.93-26.43,46.72,0,21.32,12.29,39.8,30.18,48.75h-198.84c-20.11,0-36.46-16.36-36.46-36.46V175.15c0-20.11,16.36-36.46,36.46-36.46h211.76c-.86,1.72-1.36,3.61-1.36,5.69,0,7.05,5.69,12.79,12.7,12.79s12.74-5.74,12.74-12.79c0-2.08-.5-3.98-1.36-5.69h211.76c20.1,0,36.46,16.36,36.46,36.46v729.7Z"/>
</svg>