<?xml version="1.0" encoding="UTF-8"?>
<svg id="Camada_1" xmlns="http://www.w3.org/2000/svg" version="1.1" viewBox="0 0 1080 1080">
  <!-- Generator: Adobe Illustrator 29.5.0, SVG Export Plug-In . SVG Version: 2.1.0 Build 137)  -->
  <defs>
    <style>
      .st0 {
        fill: #fff;
      }
    </style>
  </defs>
  <path class="st0" d="M171.84,65.91l731.05-.98c54.18,4.29,97.14,43.77,104.34,98.09v753.97c-7.47,56.94-57.5,96.25-113.68,98.09H189.54c-67.4-4.95-110.96-45.87-116.77-113.69l.16-725.74c4.67-55.91,42.22-102.19,98.91-109.74ZM804.66,373.37c3.38-3.74-28.41-38.65-32.99-43.28-112.19-113.37-287-155.21-441.75-165.52l-129.35-2.97c-3.17,2.77,21.32,22.55,24.81,26.54,32.05,36.62,51.5,82.85,65.77,128.91,168.99-28.97,368.5-55.62,513.5,56.32ZM907.42,575.81c0-19.97-8.03-39.31-15.98-57.17-89.43-200.99-403.74-191.53-577.3-123.65,10.07,65.86,15.45,132.63,14.13,199.51,89.43-28.83,182.76-54.62,276.08-68,98.1-14.06,227.56-27.3,303.07,49.31ZM244.17,918.39c98.03-40.37,194.04-86.22,294.21-121.51,59.72-21.04,325.44-114.93,200.82,42.01-7.72,9.72-19.14,16.44-24.74,28.14l7.67,4.64c63.83-50.1,291.68-246.86,110.62-291.22-83.41-20.44-199.37.29-282.85,19.28-76.82,17.48-151.52,42.67-224.81,71.04-12.59,65.76-23.85,132.57-52.36,193.68-8.69,18.62-21.28,34.78-28.56,53.94Z"/>
</svg>