<?xml version="1.0" encoding="UTF-8"?>
<svg id="Camada_1" xmlns="http://www.w3.org/2000/svg" version="1.1" viewBox="0 0 1080 1080">
  <!-- Generator: Adobe Illustrator 29.5.0, SVG Export Plug-In . SVG Version: 2.1.0 Build 137)  -->
  <defs>
    <style>
      .st0 {
        fill: #fff;
      }
    </style>
  </defs>
  <path id="path2376" class="st0" d="M779.31,766.16c-33.61,0-65.11-12.93-88.9-36.72l-128.16-128.16c-8.81-8.81-24.8-8.81-33.61,0l-128.68,128.68c-23.79,23.79-55.29,36.72-88.9,36.72h-25.32l162.82,162.82c50.65,50.65,133.33,50.65,183.98,0l163.29-163.29-16.52-.05h0Z"/>
  <path id="path2380" class="st0" d="M310.53,312.37c33.61,0,65.11,12.93,88.9,36.72l128.68,128.68c9.29,9.29,24.27,9.29,33.61,0l128.68-128.16c23.79-23.79,55.29-36.72,88.9-36.72h15.51l-163.29-163.29c-50.65-50.65-133.33-50.65-183.98,0l-162.86,162.77h25.85Z"/>
  <path id="path2384" class="st0" d="M929.68,447.8l-98.71-98.71c-2.06,1.05-4.64,1.53-7.23,1.53h-44.95c-23.27,0-46.01,9.29-62,25.85l-128.2,128.16c-11.87,11.87-27.91,18.1-43.42,18.1s-31.55-6.22-43.42-18.1l-128.68-128.68c-16.52-16.52-39.26-25.85-62-25.85h-55.29c-2.59,0-4.64-.53-6.7-1.53l-99.24,99.24c-50.65,50.65-50.65,133.33,0,183.98l98.71,98.71c2.06-1.05,4.12-1.53,6.7-1.53h55.29c23.27,0,46.01-9.29,62-25.85l128.68-128.68c23.27-23.27,64.1-23.27,87.32,0l128.16,128.16c16.52,16.52,39.26,25.85,62,25.85h44.95c2.59,0,4.64.53,7.23,1.53l98.71-98.71c50.75-50.65,50.75-132.8.1-183.45"/>
</svg>